<?xml version="1.0" encoding="iso-8859-1"?>
<!-- Generator: Adobe Illustrator 16.0.0, SVG Export Plug-In . SVG Version: 6.00 Build 0)  -->
<!DOCTYPE svg PUBLIC "-//W3C//DTD SVG 1.1//EN" "http://www.w3.org/Graphics/SVG/1.1/DTD/svg11.dtd">
<svg version="1.1" xmlns="http://www.w3.org/2000/svg" xmlns:xlink="http://www.w3.org/1999/xlink" x="0px" y="0px"
	 width="2388.263px" height="644.362px" viewBox="0 0 2388.263 644.362" style="enable-background:new 0 0 2388.263 644.362;"
	 xml:space="preserve">
<g id="Layer_2">
	<g id="XMLID_163_">
		<path id="XMLID_179_" style="fill:#17241F;stroke:#000000;stroke-miterlimit:10;" d="M305.243,433.579
			c-11.98-8.677-25.613-15.539-40.916-20.658c-15.304-5.082-30.86-9.421-46.653-12.997c-16.319-3.558-32.112-6.88-47.397-9.948
			c-15.303-3.05-28.936-6.753-40.916-11.091c-11.981-4.339-21.676-9.803-29.045-16.429c-7.389-6.626-11.092-15.303-11.092-26.013
			c0-8.659,2.541-15.666,7.643-21.021c5.101-5.354,11.346-9.421,18.733-12.235c7.389-2.795,15.304-4.72,23.708-5.736
			s15.666-1.524,21.783-1.524c19.369,0,36.578,3.576,51.627,10.71c9.385,4.466,16.646,14.377,21.766,24.198
			c6.354,12.217,18.171,23.362,31.931,23.362h15.412c28.591,0,47.397-34.309,32.13-58.488c-0.09-0.163-0.199-1.688-0.29-1.852
			c-9.948-15.539-22.437-28.845-37.468-38.539c-15.03-9.676-31.858-17.045-50.465-21.384c-18.625-4.32-38.121-6.662-58.488-6.662
			c-17.863,0-36.597,1.706-56.201,5.265c-19.624,3.576-37.469,9.766-53.533,18.679c-16.047,8.932-29.317,20.622-39.755,35.162
			C7.3,300.899,2.09,318.853,2.09,340.273c0,19.877,3.558,36.578,10.692,50.065c7.133,13.523,16.7,24.598,28.682,33.256
			c11.98,8.678,25.486,15.558,40.535,20.658c15.03,5.101,30.696,9.439,47.016,12.998c15.793,3.575,31.35,6.897,46.652,9.947
			c15.285,3.068,28.937,6.771,40.917,11.092c11.963,4.338,21.784,10.074,29.444,17.19c7.643,7.152,11.727,16.319,12.234,27.538
			c0.509,11.219-2.178,20.259-8.023,27.156c-5.863,6.88-13.378,12.09-22.563,15.666s-18.988,6.009-29.444,7.262
			c-10.456,1.289-19.769,1.906-27.919,1.906c-23.454,0-43.585-5.083-60.396-15.285c-10.528-6.372-18.262-19.133-23.199-31.478
			c-5.953-14.903-19.405-28.826-35.452-28.826H38.25c-25.995,0-44.783,29.534-35.217,53.714c1.435,3.612,3.031,8.805,4.792,12.181
			c8.914,17.082,21.148,32.186,36.705,43.658c15.539,11.473,33.893,20.439,55.059,26.031c21.148,5.608,44.221,8.641,69.198,8.641
			c20.386,0,41.044-2.196,61.938-6.789c20.894-4.575,39.881-11.927,56.981-22.11c17.063-10.184,30.969-23.417,41.661-39.736
			c10.71-16.302,16.064-36.18,16.064-59.633c0-19.369-3.703-35.67-11.091-48.94C326.899,453.221,317.206,442.256,305.243,433.579z"
			/>
		<path id="XMLID_176_" style="fill:#17241F;stroke:#000000;stroke-miterlimit:10;" d="M729.24,298.231
			c-16.319-21.402-36.832-38.611-61.556-51.627c-24.743-12.998-52.645-19.496-83.74-19.496c-29.57,0-56.074,5.609-79.527,16.827
			c-23.453,11.219-43.477,26.376-60.031,45.491c-16.574,19.115-29.317,41.298-38.23,66.53
			c-8.932,25.232-13.379,51.882-13.379,79.909c0,30.569,4.212,58.616,12.616,84.103c8.405,25.505,20.895,47.415,37.468,65.769
			c16.556,18.352,36.814,32.62,60.794,42.822c23.962,10.184,51.481,15.303,82.596,15.303c21.402,0,41.934-2.94,61.557-8.804
			c19.624-5.864,37.341-14.522,53.134-25.995s29.316-25.614,40.535-42.441c0.109-0.164,0.218,3.812,0.327,3.648
			c16.083-24.343-2.741-52.68-31.913-52.68h-2.959c-13.451,0-26.177,2.868-32.621,14.686c-6.971,12.762-15.811,20.857-26.521,28.409
			c-15.557,10.965-36.069,15.394-61.556,15.394c-18.353,0-34.164-3.685-47.415-10.074c-13.252-6.372-24.217-15.176-32.875-25.887
			c-8.678-10.71-15.176-23.308-19.496-37.595l-0.128,2.052c-6.626-21.874,9.749-41.443,32.603-41.443h218.125
			c19.806,0,35.744-18.97,35.09-38.756c-0.562-16.9-3.014-34.781-7.334-51.083C757.396,345.52,745.542,319.651,729.24,298.231z
			 M516.253,408.674c-21.275,0-40.01-25.65-21.856-45.273v-1.997c0-12.726,9.657-24.815,18.589-34.255
			c8.912-9.421,18.207-17.336,30.715-22.673c12.488-5.354,25.668-8.277,40.971-8.277c14.776,0,27.811,2.813,39.791,8.677
			s22.673,13.451,31.096,22.873c8.424,9.439,20.386,20.494,20.386,33.237v3.976c0,19.225-8.296,43.73-28.845,43.73H516.253V408.674z
			"/>
		<path id="XMLID_173_" style="fill:#17241F;stroke:#000000;stroke-miterlimit:10;" d="M2036.322,298.231
			c-16.319-21.402-36.833-38.611-61.557-51.627c-24.743-12.998-52.644-19.496-83.739-19.496c-29.571,0-56.074,5.609-79.528,16.827
			c-23.454,11.219-43.476,26.376-60.031,45.491c-16.573,19.115-29.317,41.298-38.23,66.53
			c-8.931,25.232-13.379,51.882-13.379,79.909c0,30.569,4.212,58.616,12.616,84.103c8.405,25.505,20.895,47.415,37.468,65.769
			c16.556,18.352,36.814,32.62,60.794,42.822c23.962,10.184,51.482,15.303,82.596,15.303c21.402,0,41.934-2.94,61.557-8.804
			c19.623-5.864,37.341-14.522,53.152-25.995c15.793-11.473,29.316-25.614,40.535-42.441c0.108-0.164,0.218,3.812,0.326,3.648
			c16.084-24.343-2.74-52.68-31.912-52.68h-2.959c-13.451,0-26.177,2.868-32.621,14.686c-6.971,12.762-15.811,20.857-26.521,28.409
			c-15.557,10.965-36.069,15.394-61.556,15.394c-18.353,0-34.164-3.685-47.416-10.074c-13.251-6.372-24.216-15.176-32.875-25.887
			c-8.677-10.71-15.176-23.308-19.496-37.595l-0.127,2.052c-6.626-21.874,9.748-41.443,32.603-41.443h218.125
			c19.806,0,35.743-18.97,35.09-38.756c-0.562-16.9-3.014-34.781-7.334-51.083C2064.478,345.52,2052.623,319.651,2036.322,298.231z
			 M1823.334,408.674c-21.275,0-40.081-25.65-21.929-45.273v-1.997c0-12.726,9.693-24.815,18.625-34.255
			c8.913-9.421,18.226-17.336,30.732-22.673c12.49-5.354,25.687-8.277,40.972-8.277c14.776,0,27.81,2.813,39.791,8.677
			s22.655,13.451,31.06,22.873c8.423,9.439,20.35,20.494,20.35,33.237v3.976c0,19.225-8.224,43.73-28.772,43.73h-130.828V408.674z"
			/>
		<path id="XMLID_172_" style="fill:#17241F;stroke:#000000;stroke-miterlimit:10;" d="M930.066,125.506
			c0-24.07-19.515-43.585-43.585-43.585h-3.595c-24.071,0-43.585,19.515-43.585,43.585v457.417
			c0,24.071,19.514,43.585,43.585,43.585h3.595c24.07,0,43.585-19.514,43.585-43.585V125.506z"/>
		<path id="XMLID_171_" style="fill:#17241F;stroke:#000000;stroke-miterlimit:10;" d="M2316.004,234.769
			c-12.743,5.101-24.343,11.854-34.781,20.277c-10.456,8.404-19.369,19.514-26.757,29.716
			c-7.389,10.202-12.362,15.013-14.922,33.165h-2.469v-39.174c0-22.601-17.845-33.438-40.445-33.438h4.357
			c-22.601,0-36.542,10.837-36.542,33.438v310.832c0,24.071,15.376,36.924,39.446,36.924h-5.21
			c24.071,0,38.375-12.853,38.375-36.924V445.07c0-21.911,5.937-41.298,11.563-58.126c5.609-16.827,14.831-30.969,24.507-42.441
			c9.675-11.473,21.819-20.132,34.817-26.013c6.153-2.777,23.254-8.587,39.772-9.276c22.219-0.926,39.954-9.476,39.954-45.782h0.092
			c0-18.152-20.241-38.811-44.166-37.086C2331.706,227.217,2320.851,232.845,2316.004,234.769z"/>
		<path id="XMLID_170_" style="fill:#17241F;stroke:#000000;stroke-miterlimit:10;" d="M1320.626,183.306
			c-17.264-0.037-31.805,14.231-31.404,31.821c-0.255,17.445,14.158,31.677,31.64,31.568c17.809-0.127,31.677-14.359,31.659-31.804
			C1352.503,197.719,1338.615,183.342,1320.626,183.306z"/>
		<path id="XMLID_169_" style="fill:#17241F;stroke:#000000;stroke-miterlimit:10;" d="M1128.858,390.521
			c27.792,0,55.584,4.193,83.377,4.447c11.399,0.109,22.49,1.488,33.582-1.598c13.451-3.739,22.564-10.147,25.487-24.07
			c1.905-9.095,0.835-17.499-4.593-25.178c-7.715-10.929-19.043-11.6-32.059-11.618c-35.289-0.055-70.578,3.54-105.867,3.54
			c-1.707,0-3.413,0-5.265,0c-0.382-18.153,0-201.896,0-201.896c0-23.781,13.506-52.172,78.656-52.172
			c19.551,0,39.175,1.688,58.58-3.504c5.79-1.543,11.2-3.448,16.464-6.625c11.854-7.171,19.751-27.484,15.975-41.244
			c-4.592-16.755-21.492-29.607-37.775-29.843c-23-0.327-46-0.345-68.981-0.055c-7.769,0.091-15.575,0.436-23.235,1.833
			c-11.49,2.124-22.782,5.374-33.982,8.805c-13.252,4.066-25.378,10.692-36.469,18.86c-14.505,10.692-26.25,24.144-36.379,38.993
			c-7.933,11.636-13.742,24.397-17.735,37.83c-4.502,15.194-6.227,30.951-6.244,46.744c-0.091,138.161-0.073,288.976-0.128,430.478
			c0,25.16,20.387,42.242,45.564,42.242h3.177c25.16,0,48.722-13.742,48.722-38.901V390.521
			C1129.748,390.521,1127.243,390.521,1128.858,390.521z"/>
		<path id="XMLID_168_" style="fill:#17241F;stroke:#000000;stroke-miterlimit:10;" d="M1521.397,390.521
			c-27.793,0-55.585,4.193-83.377,4.447c-11.4,0.109-22.491,1.488-33.583-1.598c-13.451-3.739-22.563-10.147-25.486-24.07
			c-1.906-9.095-0.835-17.499,4.593-25.178c7.715-10.929,19.042-11.6,32.058-11.618c35.29-0.055,70.579,3.54,105.868,3.54
			c1.706,0,3.412,0,5.264,0c0.381-18.153,0-201.896,0-201.896c0-23.781-13.506-52.172-78.656-52.172
			c-19.551,0-39.174,1.688-58.58-3.504c-5.79-1.543-11.2-3.448-16.464-6.625c-11.854-7.171-19.751-27.484-15.975-41.244
			c4.593-16.755,21.493-29.607,37.776-29.843c22.999-0.327,45.999-0.345,68.98-0.055c7.77,0.091,15.575,0.436,23.235,1.833
			c11.491,2.124,22.782,5.374,33.982,8.805c13.251,4.066,25.378,10.692,36.47,18.86c14.504,10.692,26.248,24.144,36.378,38.993
			c7.933,11.636,13.741,24.397,17.735,37.83c4.502,15.194,6.227,30.951,6.244,46.744c0.092,138.161,0.073,288.976,0.128,430.478
			c0,25.16-20.386,42.242-45.563,42.242h1.125c-25.16,0-44.438-13.742-44.438-38.901V390.521
			C1529.111,390.521,1523.03,390.521,1521.397,390.521z"/>
		<path id="XMLID_167_" style="fill:#17241F;stroke:#000000;stroke-miterlimit:10;" d="M1456.5,146.6
			c0,4.375-3.54,7.934-7.933,7.934h-20.458c-4.375,0-7.933-3.54-7.933-7.934v-20.458c0-4.375,3.539-7.933,7.933-7.933h20.458
			c4.375,0,7.933,3.54,7.933,7.933V146.6z"/>
		<path id="XMLID_164_" style="fill:#17241F;stroke:#000000;stroke-miterlimit:10;" d="M1320.861,138.231
			c-42.387,0-76.769,34.363-76.769,76.769c0,42.387,34.363,76.769,76.769,76.769c42.388,0,76.769-34.363,76.769-76.769
			C1397.63,172.613,1363.267,138.231,1320.861,138.231z M1320.861,262.361c-26.158,0-47.36-21.203-47.36-47.361
			s21.202-47.36,47.36-47.36s47.361,21.202,47.361,47.36S1347.021,262.361,1320.861,262.361z"/>
	</g>
</g>
<g id="Layer_1">
</g>
</svg>
